<svg width="20" height="16" viewBox="0 0 20 16" fill="none" xmlns="http://www.w3.org/2000/svg">
<g id="broken-square-plus">
<path id="Vector (Stroke)" fill-rule="evenodd" clip-rule="evenodd" d="M6 3C5.44772 3 5 3.44772 5 4V12C5 12.5523 5.44772 13 6 13H14C14.5523 13 15 12.5523 15 12V9.85714C15 9.30486 15.4477 8.85714 16 8.85714C16.5523 8.85714 17 9.30486 17 9.85714V12C17 13.6569 15.6569 15 14 15H6C4.34315 15 3 13.6569 3 12V4C3 2.34315 4.34315 1 6 1H8.14286C8.69514 1 9.14286 1.44772 9.14286 2C9.14286 2.55228 8.69514 3 8.14286 3H6ZM13 1C13.5523 1 14 1.44772 14 2V4H16C16.5523 4 17 4.44772 17 5C17 5.55228 16.5523 6 16 6H14V8C14 8.55228 13.5523 9 13 9C12.4477 9 12 8.55228 12 8V6H10C9.44772 6 9 5.55228 9 5C9 4.44772 9.44772 4 10 4L12 4V2C12 1.44772 12.4477 1 13 1Z" fill="#1d2125"/>
</g>
</svg>
