<svg width="20" height="17" viewBox="0 0 20 17" fill="none" xmlns="http://www.w3.org/2000/svg">
<path fill-rule="evenodd" clip-rule="evenodd" d="M14.2998 0C16.9782 0.00026382 19.1494 2.17119 19.1494 4.84961V11.4502C19.1492 14.1284 16.978 16.2995 14.2998 16.2998H5.70117C3.02275 16.2998 0.85085 14.1286 0.850586 11.4502V4.84961C0.850586 2.17103 3.02259 0 5.70117 0H14.2998ZM7.7002 14.5996H14.2998C16.0391 14.5993 17.4499 13.1895 17.4502 11.4502V4.84961C17.4502 3.11008 16.0393 1.69948 14.2998 1.69922H7.7002V14.5996ZM5.70117 1.69922C3.96148 1.69922 2.55078 3.10991 2.55078 4.84961V11.4502C2.55105 13.1897 3.96164 14.5996 5.70117 14.5996H6V1.69922H5.70117Z" fill="#1D2125"/>
</svg>
