<svg width="20" height="17" viewBox="0 0 20 17" fill="none" xmlns="http://www.w3.org/2000/svg">
<path fill-rule="evenodd" clip-rule="evenodd" d="M14.7998 0C17.4782 0.00026382 19.6494 2.17119 19.6494 4.84961V11.4502C19.6492 14.1284 17.478 16.2995 14.7998 16.2998H6.20117C3.52275 16.2998 1.35085 14.1286 1.35059 11.4502V4.84961C1.35059 2.17103 3.52259 0 6.20117 0H14.7998ZM14.7002 14.5996H14.7998C16.5391 14.5993 17.9499 13.1895 17.9502 11.4502V4.84961C17.9502 3.11008 16.5393 1.69948 14.7998 1.69922H14.7002V14.5996ZM6.20117 1.69922C4.46148 1.69922 3.05078 3.10991 3.05078 4.84961V11.4502C3.05105 13.1897 4.46164 14.5996 6.20117 14.5996H13.001V1.69922H6.20117Z" fill="#1D2125"/>
</svg>
